<svg width="750" height="750" viewBox="0 0 750 750" fill="none" xmlns="http://www.w3.org/2000/svg">
<path fill-rule="evenodd" clip-rule="evenodd" d="M750 0H0V750H750V0ZM530.066 151.489C533.987 152.263 537.676 153.935 540.842 156.375C544.019 158.79 546.591 161.912 548.354 165.492C550.117 169.072 551.024 173.014 551.002 177.005V494.925C550.941 504.911 547.756 514.628 541.894 522.712C536.031 530.797 527.785 536.844 518.312 540.005L496.472 547.955L496.112 548.075C487.819 550.946 478.956 551.778 470.273 550.498C461.591 549.219 453.344 545.866 446.232 540.725C438.967 535.516 433.064 528.635 429.02 520.663C424.977 512.691 422.913 503.863 423.002 494.925C422.901 484.507 426.116 474.327 432.183 465.858C438.251 457.389 446.855 451.07 456.752 447.815L507.642 429.705L507.892 429.615C514.752 427.315 519.002 421.685 519.002 414.935V273.005C519 272.395 518.859 271.795 518.589 271.248C518.32 270.702 517.929 270.224 517.446 269.852C516.964 269.479 516.403 269.222 515.806 269.099C515.209 268.977 514.592 268.992 514.002 269.145L339.372 315.785L339.162 315.845C331.772 317.705 327.002 323.625 327.002 330.915V542.915C326.942 552.902 323.757 562.621 317.895 570.707C312.032 578.793 303.786 584.842 294.312 588.005L272.472 595.945L272.092 596.075C266.373 598.005 260.378 598.994 254.342 599.005C242.804 598.987 231.567 595.326 222.232 588.545C214.983 583.361 209.088 576.508 205.045 568.566C201.002 560.625 198.929 551.826 199.002 542.915C199.002 521.005 211.882 502.535 231.772 495.885L283.772 477.885L283.892 477.835C290.642 475.565 295.002 469.745 295.002 463.005V237.005C294.932 229.844 297.244 222.863 301.573 217.159C305.903 211.455 312.006 207.352 318.922 205.495L518.242 151.915C522.097 150.861 526.145 150.715 530.066 151.489Z" fill="url(#paint0_linear_109_22)"/>
<defs>
<linearGradient id="paint0_linear_109_22" x1="271.381" y1="631.397" x2="481.701" y2="6.43834" gradientUnits="userSpaceOnUse">
<stop stop-color="#504F55"/>
<stop offset="1" stop-color="#737373"/>
</linearGradient>
</defs>
</svg>
